<svg width="166" height="32" viewBox="0 0 166 32" fill="none" xmlns="http://www.w3.org/2000/svg">
  <path d="M43.4634 0C40.4394 0 38.0034 0.966 36.3654 2.94V0.335999H30.1074V31.08H36.6594V20.538C38.3394 22.386 40.6494 23.268 43.4634 23.268C49.8054 23.268 54.7194 18.732 54.7194 11.634C54.7194 4.536 49.8054 0 43.4634 0ZM42.3294 17.892C39.0534 17.892 36.5754 15.54 36.5754 11.634C36.5754 7.728 39.0534 5.376 42.3294 5.376C45.6054 5.376 48.0834 7.728 48.0834 11.634C48.0834 15.54 45.6054 17.892 42.3294 17.892Z" fill="white"/>
  <path d="M66.8963 0.335999C60.2603 0.335999 56.1023 3.276 56.1023 8.652C56.1023 11.97 57.8243 14.322 60.9323 15.54L55.7663 22.932H62.7383L67.0223 16.464H71.8523V22.932H77.6903V0.335999H66.8963ZM67.0223 5.67H71.8523V12.096H66.9383C64.2083 12.096 62.7803 11.13 62.7803 8.862C62.7803 6.594 64.2923 5.67 67.0223 5.67Z" fill="white"/>
  <path d="M105.079 17.556V0.335999H85.3813L85.0873 8.148C84.8353 13.062 84.2893 17.472 81.1813 17.556H80.2573V27.804H86.3473V22.932H102.223V27.804H108.313V17.556H105.079ZM91.0093 8.61L91.1353 5.712H98.5273V17.556H88.9933C90.5893 15.876 90.8833 12.432 91.0093 8.61Z" fill="white"/>
  <path d="M122.021 23.268C129.203 23.268 134.411 18.438 134.411 11.634C134.411 4.83 129.203 0 122.021 0C114.839 0 109.589 4.83 109.589 11.634C109.589 18.438 114.839 23.268 122.021 23.268ZM122.021 17.892C118.745 17.892 116.225 15.54 116.225 11.634C116.225 7.728 118.745 5.376 122.021 5.376C125.297 5.376 127.775 7.728 127.775 11.634C127.775 15.54 125.297 17.892 122.021 17.892Z" fill="white"/>
  <path d="M165.889 22.932L165.805 0.335999H159.673L151.987 13.398L144.763 0.335999H137.917V22.932H143.839V9.366L150.433 20.748H153.205L159.967 9.408V22.932H165.889Z" fill="white"/>
  <path d="M9 0.932131C10.5759 0.932131 12.1363 1.22959 13.5922 1.80752C15.0481 2.38544 16.371 3.23253 17.4853 4.3004C18.5996 5.36828 19.4835 6.63603 20.0866 8.03127C20.6896 9.42652 21 10.9219 21 12.4321C21 13.9423 20.6896 15.4377 20.0866 16.833C19.4835 18.2282 18.5996 19.496 17.4853 20.5639C16.371 21.6317 15.0481 22.4788 13.5922 23.0567C12.1363 23.6347 10.5759 23.9321 9 23.9321L9 18.498C9.83122 18.498 10.6543 18.3411 11.4222 18.0363C12.1902 17.7314 12.888 17.2846 13.4757 16.7214C14.0635 16.1581 14.5297 15.4894 14.8478 14.7534C15.1659 14.0175 15.3296 13.2287 15.3296 12.4321C15.3296 11.6355 15.1659 10.8468 14.8478 10.1108C14.5297 9.37487 14.0635 8.70617 13.4757 8.1429C12.888 7.57963 12.1902 7.13282 11.4222 6.82798C10.6543 6.52314 9.83122 6.36624 9 6.36624L9 0.932131Z" fill="#C4C4C4"/>
  <path fill-rule="evenodd" clip-rule="evenodd" d="M9 6.36624C9.83122 6.36624 10.6543 6.52314 11.4222 6.82798C12.1902 7.13282 12.888 7.57963 13.4757 8.1429C14.0635 8.70617 14.5297 9.37487 14.8478 10.1108C15.1659 10.8468 15.3296 11.6355 15.3296 12.4321C15.3296 13.2287 15.1659 14.0175 14.8478 14.7534C14.5297 15.4894 14.0635 16.1581 13.4757 16.7214C12.888 17.2846 12.1902 17.7314 11.4222 18.0363C10.6543 18.3411 9.83122 18.498 9 18.498L9 23.9321C10.5759 23.9321 12.1363 23.6347 13.5922 23.0567C13.7293 23.0023 13.8653 22.9455 14 22.8863C15.2955 22.3173 16.4759 21.5311 17.4853 20.5639C18.5996 19.496 19.4835 18.2282 20.0866 16.833C20.6896 15.4377 21 13.9423 21 12.4321C21 10.9219 20.6896 9.42652 20.0866 8.03127C19.4835 6.63603 18.5996 5.36828 17.4853 4.3004C16.4759 3.33311 15.2955 2.54698 14 1.97795C13.8653 1.91878 13.7293 1.86195 13.5922 1.80752C12.1363 1.22959 10.5759 0.932131 9 0.932131L9 6.36624Z" fill="white"/>
  <path d="M3 17.9321C1.34315 17.9321 -2.7328e-07 19.2753 -3.45703e-07 20.9321C-4.18126e-07 22.589 1.34315 23.9321 3 23.9321C4.65685 23.9321 6 22.589 6 20.9321C6 19.2753 4.65685 17.9321 3 17.9321Z" fill="white"/>
  <path d="M3 0.932129C1.34315 0.932129 -2.7328e-07 2.27527 -3.45703e-07 3.93213C-4.18126e-07 5.58898 1.34315 6.93213 3 6.93213C4.65685 6.93213 6 5.58898 6 3.93213C6 2.27528 4.65685 0.932129 3 0.932129Z" fill="white"/>
</svg>
