<?xml version="1.0" encoding="UTF-8"?>
<!DOCTYPE svg PUBLIC "-//W3C//DTD SVG 1.1//EN" "http://www.w3.org/Graphics/SVG/1.1/DTD/svg11.dtd">
<!-- Creator: CorelDRAW X5 -->
<svg xmlns="http://www.w3.org/2000/svg" xml:space="preserve" width="2.9633mm" height="3.6632mm" style="shape-rendering:geometricPrecision; text-rendering:geometricPrecision; image-rendering:optimizeQuality; fill-rule:evenodd; clip-rule:evenodd"
viewBox="0 0 0.10011 0.123755"
 xmlns:xlink="http://www.w3.org/1999/xlink">
 <defs>
  <style type="text/css">
   <![CDATA[
    .fil1 {fill:none}
    .fil0 {fill:white}
   ]]>
  </style>
 </defs>
 <g id="Слой_x0020_1">
  <metadata id="CorelCorpID_0Corel-Layer"/>
  <polygon class="fil0" points="0.00571953,0.015189 0.088668,0.015189 0.088668,0.0294896 0.0972794,0.0294896 0.10011,0.0294896 0.10011,0.032351 0.10011,0.0523711 0.0492326,0.061023 0.0492326,0.0695331 0.054344,0.0695331 0.054344,0.0723945 0.054344,0.0770127 0.054344,0.10958 0.037182,0.10958 0.037182,0.0723945 0.0400435,0.0723945 0.0400435,0.0695331 0.045763,0.0695331 0.045763,0.058094 0.0972794,0.0493339 0.0972794,0.032351 0.088668,0.032351 0.088668,0.0437901 0.00571953,0.0437901 0.00571953,0.0352091 -0,0.0352091 -0,0.02377 0.00571953,0.02377 "/>
  <rect class="fil1" x="0.0133478" width="0.0734181" height="0.123755"/>
 </g>
</svg>
