<svg width="177" height="39" viewBox="0 0 177 39" fill="none" xmlns="http://www.w3.org/2000/svg">
<path d="M62.6506 7.24001C63.6786 7.45358 64.4601 7.8736 64.9953 8.50008C65.5304 9.11231 65.798 9.91676 65.798 10.9134C65.798 12.2091 65.3403 13.2057 64.4249 13.9034C63.5237 14.6011 62.1929 14.9499 60.4326 14.9499H53.8843V0H60.0312C61.6085 0 62.8407 0.327474 63.7278 0.982421C64.615 1.63737 65.0586 2.58419 65.0586 3.8229C65.0586 4.66294 64.8474 5.37484 64.4249 5.9586C64.0025 6.52812 63.411 6.95525 62.6506 7.24001ZM55.4263 6.77016H59.9467C61.0874 6.77016 61.9605 6.53523 62.5661 6.06538C63.1857 5.59553 63.4955 4.9121 63.4955 4.01511C63.4955 3.11812 63.1857 2.4347 62.5661 1.96484C61.9605 1.49499 61.0874 1.26006 59.9467 1.26006H55.4263V6.77016ZM60.4326 13.6898C62.9815 13.6898 64.2559 12.7288 64.2559 10.8066C64.2559 8.92722 62.9815 7.98751 60.4326 7.98751H55.4263V13.6898H60.4326Z" fill="#144B83"/>
<path d="M79.1696 10.9561H70.9315L69.1571 14.9499H67.5306L74.2901 0H75.8321L82.5916 14.9499H80.944L79.1696 10.9561ZM78.5993 9.67471L75.0505 1.64449L71.5018 9.67471H78.5993Z" fill="#144B83"/>
<path d="M103.549 0V14.9499H85.4251V0H86.9671V13.583H93.7266V0H95.2687V13.583H102.007V0H103.549Z" fill="#144B83"/>
<path d="M67.8426 34.2801V39H66.3851V35.647H53.4786L53.4575 39H52L52.0211 34.2801H52.7604C53.7321 34.2232 54.4081 33.4472 54.7883 31.9522C55.1685 30.443 55.4009 28.3073 55.4854 25.5451L55.6544 20.6971H65.6246V34.2801H67.8426ZM56.8795 25.6946C56.8091 27.9727 56.6331 29.8521 56.3514 31.3329C56.0839 32.7994 55.6262 33.7818 54.9784 34.2801H64.0826V22.0639H57.0063L56.8795 25.6946Z" fill="#144B83"/>
<path d="M77.516 35.7751C76.0515 35.7751 74.7207 35.4476 73.5237 34.7927C72.3408 34.1235 71.4113 33.2123 70.7354 32.059C70.0735 30.9057 69.7426 29.6101 69.7426 28.172C69.7426 26.734 70.0735 25.4383 70.7354 24.285C71.4113 23.1318 72.3408 22.2277 73.5237 21.5727C74.7207 20.9035 76.0515 20.5689 77.516 20.5689C78.9806 20.5689 80.2973 20.8964 81.4661 21.5514C82.649 22.2063 83.5785 23.1175 84.2544 24.285C84.9304 25.4383 85.2683 26.734 85.2683 28.172C85.2683 29.6101 84.9304 30.9128 84.2544 32.0803C83.5785 33.2336 82.649 34.1377 81.4661 34.7927C80.2973 35.4476 78.9806 35.7751 77.516 35.7751ZM77.516 34.3655C78.6848 34.3655 79.741 34.1021 80.6845 33.5753C81.628 33.0343 82.3674 32.2939 82.9025 31.3542C83.4376 30.4003 83.7052 29.3395 83.7052 28.172C83.7052 27.0045 83.4376 25.9509 82.9025 25.0112C82.3674 24.0572 81.628 23.3169 80.6845 22.7901C79.741 22.249 78.6848 21.9785 77.516 21.9785C76.3472 21.9785 75.284 22.249 74.3264 22.7901C73.3828 23.3169 72.6365 24.0572 72.0873 25.0112C71.5522 25.9509 71.2846 27.0045 71.2846 28.172C71.2846 29.3395 71.5522 30.4003 72.0873 31.3542C72.6365 32.2939 73.3828 33.0343 74.3264 33.5753C75.284 34.1021 76.3472 34.3655 77.516 34.3655Z" fill="#144B83"/>
<path d="M104.355 20.6971V35.647H102.855V23.6871L97.0465 33.7462H96.3072L90.4982 23.7511V35.647H88.9984V20.6971H90.287L96.7085 31.7813L103.067 20.6971H104.355Z" fill="#144B83"/>
<path d="M115.823 35.7751C114.358 35.7751 113.028 35.4476 111.831 34.7927C110.648 34.1235 109.718 33.2123 109.042 32.059C108.38 30.9057 108.049 29.6101 108.049 28.172C108.049 26.734 108.38 25.4383 109.042 24.285C109.718 23.1318 110.648 22.2277 111.831 21.5727C113.028 20.9035 114.358 20.5689 115.823 20.5689C117.287 20.5689 118.604 20.8964 119.773 21.5514C120.956 22.2063 121.885 23.1175 122.561 24.285C123.237 25.4383 123.575 26.734 123.575 28.172C123.575 29.6101 123.237 30.9128 122.561 32.0803C121.885 33.2336 120.956 34.1377 119.773 34.7927C118.604 35.4476 117.287 35.7751 115.823 35.7751ZM115.823 34.3655C116.992 34.3655 118.048 34.1021 118.991 33.5753C119.935 33.0343 120.674 32.2939 121.209 31.3542C121.745 30.4003 122.012 29.3395 122.012 28.172C122.012 27.0045 121.745 25.9509 121.209 25.0112C120.674 24.0572 119.935 23.3169 118.991 22.7901C118.048 22.249 116.992 21.9785 115.823 21.9785C114.654 21.9785 113.591 22.249 112.633 22.7901C111.69 23.3169 110.943 24.0572 110.394 25.0112C109.859 25.9509 109.592 27.0045 109.592 28.172C109.592 29.3395 109.859 30.4003 110.394 31.3542C110.943 32.2939 111.69 33.0343 112.633 33.5753C113.591 34.1021 114.654 34.3655 115.823 34.3655Z" fill="#144B83"/>
<path d="M143.127 28.1507C143.127 30.1297 142.43 31.6888 141.036 32.8278C139.656 33.9526 137.719 34.5506 135.227 34.6218V36.1595H133.769V34.6218C131.277 34.5364 129.333 33.9313 127.939 32.8065C126.559 31.6817 125.869 30.1297 125.869 28.1507C125.869 26.1716 126.559 24.6196 127.939 23.4948C129.333 22.37 131.277 21.7649 133.769 21.6795V20.1845H135.227V21.6795C137.705 21.7649 139.641 22.3772 141.036 23.5162C142.43 24.641 143.127 26.1858 143.127 28.1507ZM135.227 33.3618C137.269 33.2763 138.846 32.7851 139.958 31.8881C141.071 30.9911 141.627 29.7453 141.627 28.1507C141.627 26.556 141.064 25.3102 139.937 24.4132C138.825 23.5162 137.255 23.0321 135.227 22.9609V33.3618ZM127.369 28.1507C127.369 29.7453 127.925 30.9911 129.037 31.8881C130.164 32.7709 131.741 33.2621 133.769 33.3618V22.9609C131.713 23.0463 130.129 23.5376 129.016 24.4345C127.918 25.3173 127.369 26.556 127.369 28.1507Z" fill="#144B83"/>
<path d="M153.16 35.7751C151.696 35.7751 150.365 35.4476 149.168 34.7927C147.985 34.1235 147.056 33.2123 146.38 32.059C145.718 30.9057 145.387 29.6101 145.387 28.172C145.387 26.734 145.718 25.4383 146.38 24.285C147.056 23.1318 147.985 22.2277 149.168 21.5727C150.365 20.9035 151.696 20.5689 153.16 20.5689C154.625 20.5689 155.942 20.8964 157.11 21.5514C158.293 22.2063 159.223 23.1175 159.899 24.285C160.575 25.4383 160.913 26.734 160.913 28.172C160.913 29.6101 160.575 30.9128 159.899 32.0803C159.223 33.2336 158.293 34.1377 157.11 34.7927C155.942 35.4476 154.625 35.7751 153.16 35.7751ZM153.16 34.3655C154.329 34.3655 155.385 34.1021 156.329 33.5753C157.272 33.0343 158.012 32.2939 158.547 31.3542C159.082 30.4003 159.35 29.3395 159.35 28.172C159.35 27.0045 159.082 25.9509 158.547 25.0112C158.012 24.0572 157.272 23.3169 156.329 22.7901C155.385 22.249 154.329 21.9785 153.16 21.9785C151.992 21.9785 150.928 22.249 149.971 22.7901C149.027 23.3169 148.281 24.0572 147.732 25.0112C147.196 25.9509 146.929 27.0045 146.929 28.172C146.929 29.3395 147.196 30.4003 147.732 31.3542C148.281 32.2939 149.027 33.0343 149.971 33.5753C150.928 34.1021 151.992 34.3655 153.16 34.3655Z" fill="#144B83"/>
<path d="M177 20.6971V35.647H175.458V28.7487H166.206V35.647H164.643V20.6971H166.206V27.3605H175.458V20.6971H177Z" fill="#144B83"/>
<path d="M0.804815 16.9254C0.447248 17.1373 0 16.8724 0 16.4487V0.550318C0 0.246431 0.240189 0 0.536353 0H38.4636C38.7598 0 39 0.246431 39 0.550318V9.86567C39 10.2709 38.5873 10.5374 38.2315 10.3618L25.5926 3.93944C25.433 3.86061 25.2456 3.86791 25.092 3.95876L0.804815 16.9254Z" fill="#144B83"/>
<path d="M25.5929 21.0642C25.4333 20.9861 25.2459 20.9933 25.0923 21.0833L0.804811 33.9262C0.447243 34.136 0 33.8736 0 33.4539V24.6682C0 24.4734 0.102242 24.2935 0.268174 24.1962L25.0349 11.073C25.1882 10.983 25.3756 10.9758 25.5352 11.0536L38.6958 17.6685C38.8818 17.7594 39 17.9504 39 18.16V26.9335C39 27.3349 38.5876 27.5987 38.2315 27.4249L25.5929 21.0642Z" fill="#6DB6E2"/>
<path d="M5.53156 39H38.4694C38.7624 39 39 38.7664 39 38.4783V34.8522C39 34.6516 38.883 34.4686 38.6991 34.3819L25.679 28.0515C25.521 27.9768 25.3357 27.9838 25.1839 28.0699L5.26596 38.0264C4.79608 38.2933 4.98878 39 5.53156 39Z" fill="#6DB6E2"/>
<path d="M39 17.9504V26.4707C39 26.8597 38.5754 27.1161 38.2094 26.947L25.2518 20.7689C25.1728 20.7323 25.0849 20.7154 25 20.7182V11C25.0673 11.0056 25.1318 11.0197 25.1933 11.0507L38.6867 17.4741C38.877 17.5615 39 17.7475 39 17.9504Z" fill="#144B83"/>
<path fill-rule="evenodd" clip-rule="evenodd" d="M25 11L25.0396 11.0035C25.1097 11.0098 25.1787 11.0255 25.2452 11.0611C25.2453 11.0611 25.2454 11.0612 25.2456 11.0613L38.6676 17.8542C38.6676 17.8542 38.6675 17.8542 38.6676 17.8542C38.8693 17.9528 39 18.1626 39 18.3916V27.4029C39 27.8419 38.5494 28.1309 38.1613 27.9403L38.1609 27.9401L25.2711 21.4061C25.2711 21.4061 25.2712 21.4061 25.2711 21.4061C25.198 21.3701 25.1163 21.3533 25.0377 21.3561L25 21.3574V11ZM25.0728 11.0825V21.2816C25.151 21.2842 25.2303 21.3032 25.3027 21.3389L25.3031 21.3391L38.1928 27.8731C38.1929 27.8731 38.1928 27.8731 38.1928 27.8731C38.5329 28.04 38.9272 27.7866 38.9272 27.4029V18.3916C38.9272 18.1915 38.813 18.0077 38.6362 17.9215L38.6357 17.9212L25.2118 11.1273C25.1678 11.1037 25.1217 11.09 25.0728 11.0825Z" fill="#144B83"/>
<path d="M39 34.85V38.4778C39 38.7639 38.754 39 38.4495 39H25V28C25.0673 28.0056 25.1318 28.0195 25.1933 28.05L38.6867 34.3806C38.877 34.4667 39 34.65 39 34.85Z" fill="#144B83"/>
<path fill-rule="evenodd" clip-rule="evenodd" d="M25 28L25.0396 28.0033C25.1097 28.009 25.1787 28.0237 25.2452 28.0566C25.2453 28.0567 25.2454 28.0567 25.2456 28.0568L38.6676 34.3453C38.6676 34.3453 38.6675 34.3452 38.6676 34.3453C38.8693 34.4365 39 34.6307 39 34.8427V38.4467C39 38.7499 38.7391 39 38.4159 39H25V28ZM25.0728 28.0764V38.931H38.4159C38.6987 38.931 38.9272 38.712 38.9272 38.4467V34.8427C38.9272 34.6575 38.813 34.4874 38.6362 34.4075L38.6357 34.4073L25.2118 28.1179C25.1677 28.0961 25.1217 28.0834 25.0728 28.0764Z" fill="#144B83"/>
</svg>
